G04 #@! TF.GenerationSoftware,KiCad,Pcbnew,(5.0.0)*
G04 #@! TF.CreationDate,2018-08-07T19:49:38+02:00*
G04 #@! TF.ProjectId,Palantype,50616C616E747970652E6B696361645F,rev?*
G04 #@! TF.SameCoordinates,Original*
G04 #@! TF.FileFunction,Soldermask,Bot*
G04 #@! TF.FilePolarity,Negative*
%FSLAX46Y46*%
G04 Gerber Fmt 4.6, Leading zero omitted, Abs format (unit mm)*
G04 Created by KiCad (PCBNEW (5.0.0)) date 08/07/18 19:49:38*
%MOMM*%
%LPD*%
G01*
G04 APERTURE LIST*
%ADD10C,2.600000*%
%ADD11C,4.400000*%
%ADD12C,2.100000*%
%ADD13R,1.400000X1.400000*%
%ADD14O,2.127200X2.127200*%
%ADD15R,2.127200X2.127200*%
%ADD16R,2.000000X2.000000*%
%ADD17C,2.000000*%
%ADD18C,3.600000*%
G04 APERTURE END LIST*
D10*
G04 #@! TO.C,SW24*
X131920000Y-101000000D03*
X138270000Y-103540000D03*
D11*
X134460000Y-106080000D03*
D12*
X139540000Y-106080000D03*
X129380000Y-106080000D03*
G04 #@! TD*
D13*
G04 #@! TO.C,D2*
X63058271Y-75938257D03*
X63058271Y-73438257D03*
G04 #@! TD*
G04 #@! TO.C,D4*
X58558271Y-73438257D03*
X58558271Y-75938257D03*
G04 #@! TD*
G04 #@! TO.C,D6*
X54058271Y-75938257D03*
X54058271Y-73438257D03*
G04 #@! TD*
G04 #@! TO.C,D7*
X61750000Y-55500000D03*
X64250000Y-55500000D03*
G04 #@! TD*
G04 #@! TO.C,D9*
X64250000Y-60000000D03*
X61750000Y-60000000D03*
G04 #@! TD*
G04 #@! TO.C,D11*
X61750000Y-65000000D03*
X64250000Y-65000000D03*
G04 #@! TD*
G04 #@! TO.C,D13*
X121000000Y-55750000D03*
X121000000Y-53250000D03*
G04 #@! TD*
G04 #@! TO.C,D15*
X116500000Y-53250000D03*
X116500000Y-55750000D03*
G04 #@! TD*
G04 #@! TO.C,D17*
X111500000Y-53250000D03*
X111500000Y-55750000D03*
G04 #@! TD*
G04 #@! TO.C,D22*
X135500000Y-92750000D03*
X135500000Y-90250000D03*
G04 #@! TD*
G04 #@! TO.C,D24*
X140500000Y-90250000D03*
X140500000Y-92750000D03*
G04 #@! TD*
G04 #@! TO.C,D25*
X150000000Y-102250000D03*
X150000000Y-99750000D03*
G04 #@! TD*
G04 #@! TO.C,D27*
X155000000Y-99750000D03*
X155000000Y-102250000D03*
G04 #@! TD*
G04 #@! TO.C,D29*
X160000000Y-102250000D03*
X160000000Y-99750000D03*
G04 #@! TD*
D14*
G04 #@! TO.C,J1*
X156460000Y-75880000D03*
X159000000Y-75880000D03*
X156460000Y-78420000D03*
X159000000Y-78420000D03*
X156460000Y-80960000D03*
X159000000Y-80960000D03*
X156460000Y-83500000D03*
D15*
X159000000Y-83500000D03*
G04 #@! TD*
D12*
G04 #@! TO.C,SW1*
X101540000Y-58580000D03*
X91380000Y-58580000D03*
D11*
X96460000Y-58580000D03*
D10*
X92650000Y-56040000D03*
X99000000Y-53500000D03*
G04 #@! TD*
G04 #@! TO.C,SW2*
X93920000Y-53500000D03*
X100270000Y-56040000D03*
D11*
X96460000Y-58580000D03*
D12*
X101540000Y-58580000D03*
X91380000Y-58580000D03*
G04 #@! TD*
D10*
G04 #@! TO.C,SW3*
X80000000Y-63000000D03*
X73650000Y-65540000D03*
D11*
X77460000Y-68080000D03*
D12*
X72380000Y-68080000D03*
X82540000Y-68080000D03*
G04 #@! TD*
G04 #@! TO.C,SW4*
X120540000Y-68080000D03*
X110380000Y-68080000D03*
D11*
X115460000Y-68080000D03*
D10*
X111650000Y-65540000D03*
X118000000Y-63000000D03*
G04 #@! TD*
D12*
G04 #@! TO.C,SW5*
X72380000Y-68080000D03*
X82540000Y-68080000D03*
D11*
X77460000Y-68080000D03*
D10*
X81270000Y-65540000D03*
X74920000Y-63000000D03*
G04 #@! TD*
G04 #@! TO.C,SW6*
X112920000Y-63000000D03*
X119270000Y-65540000D03*
D11*
X115460000Y-68080000D03*
D12*
X120540000Y-68080000D03*
X110380000Y-68080000D03*
G04 #@! TD*
D10*
G04 #@! TO.C,SW7*
X99000000Y-72500000D03*
X92650000Y-75040000D03*
D11*
X96460000Y-77580000D03*
D12*
X91380000Y-77580000D03*
X101540000Y-77580000D03*
G04 #@! TD*
G04 #@! TO.C,SW8*
X91380000Y-77580000D03*
X101540000Y-77580000D03*
D11*
X96460000Y-77580000D03*
D10*
X100270000Y-75040000D03*
X93920000Y-72500000D03*
G04 #@! TD*
D12*
G04 #@! TO.C,SW9*
X63540000Y-87080000D03*
X53380000Y-87080000D03*
D11*
X58460000Y-87080000D03*
D10*
X54650000Y-84540000D03*
X61000000Y-82000000D03*
G04 #@! TD*
D12*
G04 #@! TO.C,SW10*
X82540000Y-87080000D03*
X72380000Y-87080000D03*
D11*
X77460000Y-87080000D03*
D10*
X73650000Y-84540000D03*
X80000000Y-82000000D03*
G04 #@! TD*
D12*
G04 #@! TO.C,SW11*
X120540000Y-87080000D03*
X110380000Y-87080000D03*
D11*
X115460000Y-87080000D03*
D10*
X111650000Y-84540000D03*
X118000000Y-82000000D03*
G04 #@! TD*
D12*
G04 #@! TO.C,SW12*
X53380000Y-87080000D03*
X63540000Y-87080000D03*
D11*
X58460000Y-87080000D03*
D10*
X62270000Y-84540000D03*
X55920000Y-82000000D03*
G04 #@! TD*
G04 #@! TO.C,SW13*
X74920000Y-82000000D03*
X81270000Y-84540000D03*
D11*
X77460000Y-87080000D03*
D12*
X82540000Y-87080000D03*
X72380000Y-87080000D03*
G04 #@! TD*
G04 #@! TO.C,SW14*
X110380000Y-87080000D03*
X120540000Y-87080000D03*
D11*
X115460000Y-87080000D03*
D10*
X119270000Y-84540000D03*
X112920000Y-82000000D03*
G04 #@! TD*
G04 #@! TO.C,SW15*
X99000000Y-91500000D03*
X92650000Y-94040000D03*
D11*
X96460000Y-96580000D03*
D12*
X91380000Y-96580000D03*
X101540000Y-96580000D03*
G04 #@! TD*
D10*
G04 #@! TO.C,SW16*
X93920000Y-91500000D03*
X100270000Y-94040000D03*
D11*
X96460000Y-96580000D03*
D12*
X101540000Y-96580000D03*
X91380000Y-96580000D03*
G04 #@! TD*
D10*
G04 #@! TO.C,SW17*
X61000000Y-101000000D03*
X54650000Y-103540000D03*
D11*
X58460000Y-106080000D03*
D12*
X53380000Y-106080000D03*
X63540000Y-106080000D03*
G04 #@! TD*
D10*
G04 #@! TO.C,SW18*
X80000000Y-101000000D03*
X73650000Y-103540000D03*
D11*
X77460000Y-106080000D03*
D12*
X72380000Y-106080000D03*
X82540000Y-106080000D03*
G04 #@! TD*
D10*
G04 #@! TO.C,SW19*
X55920000Y-101000000D03*
X62270000Y-103540000D03*
D11*
X58460000Y-106080000D03*
D12*
X63540000Y-106080000D03*
X53380000Y-106080000D03*
G04 #@! TD*
G04 #@! TO.C,SW20*
X72380000Y-106080000D03*
X82540000Y-106080000D03*
D11*
X77460000Y-106080000D03*
D10*
X81270000Y-103540000D03*
X74920000Y-101000000D03*
G04 #@! TD*
D12*
G04 #@! TO.C,SW21*
X120540000Y-106080000D03*
X110380000Y-106080000D03*
D11*
X115460000Y-106080000D03*
D10*
X111650000Y-103540000D03*
X118000000Y-101000000D03*
G04 #@! TD*
G04 #@! TO.C,SW22*
X137000000Y-101000000D03*
X130650000Y-103540000D03*
D11*
X134460000Y-106080000D03*
D12*
X129380000Y-106080000D03*
X139540000Y-106080000D03*
G04 #@! TD*
G04 #@! TO.C,SW23*
X110380000Y-106080000D03*
X120540000Y-106080000D03*
D11*
X115460000Y-106080000D03*
D10*
X119270000Y-103540000D03*
X112920000Y-101000000D03*
G04 #@! TD*
G04 #@! TO.C,SW25*
X156000000Y-110500000D03*
X149650000Y-113040000D03*
D11*
X153460000Y-115580000D03*
D12*
X148380000Y-115580000D03*
X158540000Y-115580000D03*
G04 #@! TD*
G04 #@! TO.C,SW26*
X148380000Y-115580000D03*
X158540000Y-115580000D03*
D11*
X153460000Y-115580000D03*
D10*
X157270000Y-113040000D03*
X150920000Y-110500000D03*
G04 #@! TD*
G04 #@! TO.C,SW27*
X70500000Y-120000000D03*
X64150000Y-122540000D03*
D11*
X67960000Y-125080000D03*
D12*
X62880000Y-125080000D03*
X73040000Y-125080000D03*
G04 #@! TD*
G04 #@! TO.C,SW28*
X111040000Y-125080000D03*
X100880000Y-125080000D03*
D11*
X105960000Y-125080000D03*
D10*
X102150000Y-122540000D03*
X108500000Y-120000000D03*
G04 #@! TD*
D12*
G04 #@! TO.C,SW29*
X139540000Y-125080000D03*
X129380000Y-125080000D03*
D11*
X134460000Y-125080000D03*
D10*
X130650000Y-122540000D03*
X137000000Y-120000000D03*
G04 #@! TD*
G04 #@! TO.C,SW30*
X65420000Y-120000000D03*
X71770000Y-122540000D03*
D11*
X67960000Y-125080000D03*
D12*
X73040000Y-125080000D03*
X62880000Y-125080000D03*
G04 #@! TD*
G04 #@! TO.C,SW31*
X100880000Y-125080000D03*
X111040000Y-125080000D03*
D11*
X105960000Y-125080000D03*
D10*
X109770000Y-122540000D03*
X103420000Y-120000000D03*
G04 #@! TD*
G04 #@! TO.C,SW32*
X131920000Y-120000000D03*
X138270000Y-122540000D03*
D11*
X134460000Y-125080000D03*
D12*
X139540000Y-125080000D03*
X129380000Y-125080000D03*
G04 #@! TD*
D16*
G04 #@! TO.C,U1*
X128880000Y-48030000D03*
D17*
X128880000Y-50570000D03*
X128880000Y-53110000D03*
X128880000Y-55650000D03*
X128880000Y-58190000D03*
X128880000Y-60730000D03*
X128880000Y-63270000D03*
X128880000Y-65810000D03*
X128880000Y-68350000D03*
X128880000Y-70890000D03*
X128880000Y-73430000D03*
X128880000Y-75970000D03*
X144120000Y-75970000D03*
X144120000Y-73430000D03*
X144120000Y-70890000D03*
X144120000Y-68350000D03*
X144120000Y-65810000D03*
X144120000Y-63270000D03*
X144120000Y-60730000D03*
X144120000Y-58190000D03*
X144120000Y-55650000D03*
X144120000Y-53110000D03*
X144120000Y-50570000D03*
X144120000Y-48030000D03*
G04 #@! TD*
D13*
G04 #@! TO.C,D20*
X130500000Y-90250000D03*
X130500000Y-92750000D03*
G04 #@! TD*
D18*
G04 #@! TO.C,MH1*
X51000000Y-51000000D03*
G04 #@! TD*
G04 #@! TO.C,MH2*
X51000000Y-131000000D03*
G04 #@! TD*
G04 #@! TO.C,MH3*
X161000000Y-51000000D03*
G04 #@! TD*
G04 #@! TO.C,MH4*
X161000000Y-131000000D03*
G04 #@! TD*
M02*
