M48
;DRILL file {KiCad (5.0.0)} date 08/07/18 14:56:12
;FORMAT={-:-/ absolute / inch / decimal}
FMAT,2
INCH,TZ
T1C0.0400
T2C0.0433
T3C0.0591
T4C0.0669
T5C0.1260
T6C0.1575
%
G90
G05
M72
T1
X6.1598Y-2.9874
X6.1598Y-3.0874
X6.1598Y-3.1874
X6.1598Y-3.2874
X6.2598Y-2.9874
X6.2598Y-3.0874
X6.2598Y-3.1874
X6.2598Y-3.2874
T2
X5.074Y-1.8909
X5.074Y-1.9909
X5.074Y-2.0909
X5.074Y-2.1909
X5.074Y-2.2909
X5.074Y-2.3909
X5.074Y-2.4909
X5.074Y-2.5909
X5.074Y-2.6909
X5.074Y-2.7909
X5.074Y-2.8909
X5.074Y-2.9909
X5.674Y-1.8909
X5.674Y-1.9909
X5.674Y-2.0909
X5.674Y-2.1909
X5.674Y-2.2909
X5.674Y-2.3909
X5.674Y-2.4909
X5.674Y-2.5909
X5.674Y-2.6909
X5.674Y-2.7909
X5.674Y-2.8909
X5.674Y-2.9909
T3
X2.5256Y-4.8244
X2.7756Y-4.7244
X2.2016Y-3.9764
X2.4516Y-4.0764
X4.0717Y-4.7244
X4.3217Y-4.8244
X2.2016Y-3.2283
X2.4516Y-3.3283
X2.9496Y-2.4803
X3.1996Y-2.5803
X4.3957Y-4.0764
X4.6457Y-3.9764
X4.4457Y-3.2283
X4.6957Y-3.3283
X3.6476Y-2.9543
X3.8976Y-2.8543
X4.4457Y-3.9764
X4.6957Y-4.0764
X3.6976Y-3.6024
X3.9476Y-3.7024
X2.1516Y-3.3283
X2.4016Y-3.2283
X3.6976Y-2.1063
X3.9476Y-2.2063
X5.1937Y-3.9764
X5.4437Y-4.0764
X5.9417Y-4.3504
X6.1917Y-4.4504
X2.8996Y-4.0764
X3.1496Y-3.9764
X2.5756Y-4.7244
X2.8256Y-4.8244
X4.3957Y-3.3283
X4.6457Y-3.2283
X4.3957Y-2.5803
X4.6457Y-2.4803
X4.0217Y-4.8244
X4.2717Y-4.7244
X2.9496Y-3.9764
X3.1996Y-4.0764
X5.1937Y-4.7244
X5.4437Y-4.8244
X2.9496Y-3.2283
X3.1996Y-3.3283
X4.4457Y-2.4803
X4.6957Y-2.5803
X5.1437Y-4.0764
X5.3937Y-3.9764
X3.6476Y-3.7024
X3.8976Y-3.6024
X3.6976Y-2.8543
X3.9476Y-2.9543
X3.6476Y-2.2063
X3.8976Y-2.1063
X5.8917Y-4.4504
X6.1417Y-4.3504
X2.1516Y-4.0764
X2.4016Y-3.9764
X5.1437Y-4.8244
X5.3937Y-4.7244
X2.8996Y-3.3283
X3.1496Y-3.2283
X2.8996Y-2.5803
X3.1496Y-2.4803
T4
X2.4756Y-4.9244
X2.8756Y-4.9244
X2.1016Y-4.1764
X2.5016Y-4.1764
X3.9717Y-4.9244
X4.3717Y-4.9244
X2.1016Y-3.4283
X2.5016Y-3.4283
X2.8496Y-2.6803
X3.2496Y-2.6803
X4.3457Y-4.1764
X4.7457Y-4.1764
X4.3457Y-3.4283
X4.7457Y-3.4283
X3.5976Y-3.0543
X3.9976Y-3.0543
;X4.3457Y-4.1764
;X4.7457Y-4.1764
X3.5976Y-3.8024
X3.9976Y-3.8024
;X2.1016Y-3.4283
;X2.5016Y-3.4283
X3.5976Y-2.3063
X3.9976Y-2.3063
X5.0937Y-4.1764
X5.4937Y-4.1764
X5.8417Y-4.5504
X6.2417Y-4.5504
X2.8496Y-4.1764
X3.2496Y-4.1764
;X2.4756Y-4.9244
;X2.8756Y-4.9244
;X4.3457Y-3.4283
;X4.7457Y-3.4283
X4.3457Y-2.6803
X4.7457Y-2.6803
;X3.9717Y-4.9244
;X4.3717Y-4.9244
;X2.8496Y-4.1764
;X3.2496Y-4.1764
X5.0937Y-4.9244
X5.4937Y-4.9244
X2.8496Y-3.4283
X3.2496Y-3.4283
;X4.3457Y-2.6803
;X4.7457Y-2.6803
;X5.0937Y-4.1764
;X5.4937Y-4.1764
;X3.5976Y-3.8024
;X3.9976Y-3.8024
;X3.5976Y-3.0543
;X3.9976Y-3.0543
;X3.5976Y-2.3063
;X3.9976Y-2.3063
;X5.8417Y-4.5504
;X6.2417Y-4.5504
;X2.1016Y-4.1764
;X2.5016Y-4.1764
;X5.0937Y-4.9244
;X5.4937Y-4.9244
;X2.8496Y-3.4283
;X3.2496Y-3.4283
;X2.8496Y-2.6803
;X3.2496Y-2.6803
T5
X2.0079Y-5.1575
X6.3386Y-5.1575
X2.0079Y-2.0079
X6.3386Y-2.0079
T6
X4.5457Y-4.1764
X3.7976Y-3.8024
X2.3016Y-3.4283
X3.7976Y-2.3063
X5.2937Y-4.1764
X6.0417Y-4.5504
X3.0496Y-4.1764
X2.6756Y-4.9244
X4.5457Y-3.4283
X4.5457Y-2.6803
X4.1717Y-4.9244
;X3.0496Y-4.1764
X5.2937Y-4.9244
X3.0496Y-3.4283
;X4.5457Y-2.6803
;X5.2937Y-4.1764
;X3.7976Y-3.8024
X3.7976Y-3.0543
;X3.7976Y-2.3063
;X6.0417Y-4.5504
X2.3016Y-4.1764
;X5.2937Y-4.9244
;X3.0496Y-3.4283
X3.0496Y-2.6803
;X2.6756Y-4.9244
;X2.3016Y-4.1764
;X4.1717Y-4.9244
;X2.3016Y-3.4283
;X3.0496Y-2.6803
;X4.5457Y-4.1764
;X4.5457Y-3.4283
;X3.7976Y-3.0543
T0
M30
