G04 #@! TF.GenerationSoftware,KiCad,Pcbnew,(5.0.0)*
G04 #@! TF.CreationDate,2018-08-07T19:49:38+02:00*
G04 #@! TF.ProjectId,Palantype,50616C616E747970652E6B696361645F,rev?*
G04 #@! TF.SameCoordinates,Original*
G04 #@! TF.FileFunction,Copper,L1,Top,Signal*
G04 #@! TF.FilePolarity,Positive*
%FSLAX46Y46*%
G04 Gerber Fmt 4.6, Leading zero omitted, Abs format (unit mm)*
G04 Created by KiCad (PCBNEW (5.0.0)) date 08/07/18 19:49:38*
%MOMM*%
%LPD*%
G01*
G04 APERTURE LIST*
G04 #@! TA.AperFunction,ComponentPad*
%ADD10C,2.200000*%
G04 #@! TD*
G04 #@! TA.AperFunction,ComponentPad*
%ADD11O,1.727200X1.727200*%
G04 #@! TD*
G04 #@! TA.AperFunction,ComponentPad*
%ADD12R,1.727200X1.727200*%
G04 #@! TD*
G04 #@! TA.AperFunction,SMDPad,CuDef*
%ADD13C,0.500000*%
G04 #@! TD*
G04 #@! TA.AperFunction,Conductor*
%ADD14C,0.100000*%
G04 #@! TD*
G04 #@! TA.AperFunction,ComponentPad*
%ADD15R,1.600000X1.600000*%
G04 #@! TD*
G04 #@! TA.AperFunction,ComponentPad*
%ADD16C,1.600000*%
G04 #@! TD*
G04 #@! TA.AperFunction,Conductor*
%ADD17C,0.500000*%
G04 #@! TD*
G04 #@! TA.AperFunction,Conductor*
%ADD18C,0.250000*%
G04 #@! TD*
G04 #@! TA.AperFunction,Conductor*
%ADD19C,1.000000*%
G04 #@! TD*
G04 APERTURE END LIST*
D10*
G04 #@! TO.P,SW24,1*
G04 #@! TO.N,Net-(D25-Pad2)*
X131920000Y-101000000D03*
G04 #@! TO.P,SW24,2*
G04 #@! TO.N,/Row_3*
X138270000Y-103540000D03*
G04 #@! TD*
D11*
G04 #@! TO.P,J1,8*
G04 #@! TO.N,/Row_4*
X156460000Y-75880000D03*
G04 #@! TO.P,J1,7*
G04 #@! TO.N,/Row_5*
X159000000Y-75880000D03*
G04 #@! TO.P,J1,6*
G04 #@! TO.N,/Row_6*
X156460000Y-78420000D03*
G04 #@! TO.P,J1,5*
G04 #@! TO.N,/Column_5*
X159000000Y-78420000D03*
G04 #@! TO.P,J1,4*
G04 #@! TO.N,/Column_1*
X156460000Y-80960000D03*
G04 #@! TO.P,J1,3*
G04 #@! TO.N,/Column_4*
X159000000Y-80960000D03*
G04 #@! TO.P,J1,2*
G04 #@! TO.N,/Column_3*
X156460000Y-83500000D03*
D12*
G04 #@! TO.P,J1,1*
G04 #@! TO.N,/Column_2*
X159000000Y-83500000D03*
G04 #@! TD*
D13*
G04 #@! TO.P,JP1,1*
G04 #@! TO.N,/Row_4*
X136650000Y-58000000D03*
D14*
G04 #@! TD*
G04 #@! TO.N,/Row_4*
G04 #@! TO.C,JP1*
G36*
X136150000Y-57250000D02*
X136650000Y-57250000D01*
X136650000Y-57250602D01*
X136674534Y-57250602D01*
X136723365Y-57255412D01*
X136771490Y-57264984D01*
X136818445Y-57279228D01*
X136863778Y-57298005D01*
X136907051Y-57321136D01*
X136947850Y-57348396D01*
X136985779Y-57379524D01*
X137020476Y-57414221D01*
X137051604Y-57452150D01*
X137078864Y-57492949D01*
X137101995Y-57536222D01*
X137120772Y-57581555D01*
X137135016Y-57628510D01*
X137144588Y-57676635D01*
X137149398Y-57725466D01*
X137149398Y-57750000D01*
X137150000Y-57750000D01*
X137150000Y-58250000D01*
X137149398Y-58250000D01*
X137149398Y-58274534D01*
X137144588Y-58323365D01*
X137135016Y-58371490D01*
X137120772Y-58418445D01*
X137101995Y-58463778D01*
X137078864Y-58507051D01*
X137051604Y-58547850D01*
X137020476Y-58585779D01*
X136985779Y-58620476D01*
X136947850Y-58651604D01*
X136907051Y-58678864D01*
X136863778Y-58701995D01*
X136818445Y-58720772D01*
X136771490Y-58735016D01*
X136723365Y-58744588D01*
X136674534Y-58749398D01*
X136650000Y-58749398D01*
X136650000Y-58750000D01*
X136150000Y-58750000D01*
X136150000Y-57250000D01*
X136150000Y-57250000D01*
G37*
D13*
G04 #@! TO.P,JP1,2*
G04 #@! TO.N,/Row_1*
X135350000Y-58000000D03*
D14*
G04 #@! TD*
G04 #@! TO.N,/Row_1*
G04 #@! TO.C,JP1*
G36*
X135350000Y-58749398D02*
X135325466Y-58749398D01*
X135276635Y-58744588D01*
X135228510Y-58735016D01*
X135181555Y-58720772D01*
X135136222Y-58701995D01*
X135092949Y-58678864D01*
X135052150Y-58651604D01*
X135014221Y-58620476D01*
X134979524Y-58585779D01*
X134948396Y-58547850D01*
X134921136Y-58507051D01*
X134898005Y-58463778D01*
X134879228Y-58418445D01*
X134864984Y-58371490D01*
X134855412Y-58323365D01*
X134850602Y-58274534D01*
X134850602Y-58250000D01*
X134850000Y-58250000D01*
X134850000Y-57750000D01*
X134850602Y-57750000D01*
X134850602Y-57725466D01*
X134855412Y-57676635D01*
X134864984Y-57628510D01*
X134879228Y-57581555D01*
X134898005Y-57536222D01*
X134921136Y-57492949D01*
X134948396Y-57452150D01*
X134979524Y-57414221D01*
X135014221Y-57379524D01*
X135052150Y-57348396D01*
X135092949Y-57321136D01*
X135136222Y-57298005D01*
X135181555Y-57279228D01*
X135228510Y-57264984D01*
X135276635Y-57255412D01*
X135325466Y-57250602D01*
X135350000Y-57250602D01*
X135350000Y-57250000D01*
X135850000Y-57250000D01*
X135850000Y-58750000D01*
X135350000Y-58750000D01*
X135350000Y-58749398D01*
X135350000Y-58749398D01*
G37*
D13*
G04 #@! TO.P,JP2,2*
G04 #@! TO.N,/Row_2*
X135350000Y-62500000D03*
D14*
G04 #@! TD*
G04 #@! TO.N,/Row_2*
G04 #@! TO.C,JP2*
G36*
X135350000Y-63249398D02*
X135325466Y-63249398D01*
X135276635Y-63244588D01*
X135228510Y-63235016D01*
X135181555Y-63220772D01*
X135136222Y-63201995D01*
X135092949Y-63178864D01*
X135052150Y-63151604D01*
X135014221Y-63120476D01*
X134979524Y-63085779D01*
X134948396Y-63047850D01*
X134921136Y-63007051D01*
X134898005Y-62963778D01*
X134879228Y-62918445D01*
X134864984Y-62871490D01*
X134855412Y-62823365D01*
X134850602Y-62774534D01*
X134850602Y-62750000D01*
X134850000Y-62750000D01*
X134850000Y-62250000D01*
X134850602Y-62250000D01*
X134850602Y-62225466D01*
X134855412Y-62176635D01*
X134864984Y-62128510D01*
X134879228Y-62081555D01*
X134898005Y-62036222D01*
X134921136Y-61992949D01*
X134948396Y-61952150D01*
X134979524Y-61914221D01*
X135014221Y-61879524D01*
X135052150Y-61848396D01*
X135092949Y-61821136D01*
X135136222Y-61798005D01*
X135181555Y-61779228D01*
X135228510Y-61764984D01*
X135276635Y-61755412D01*
X135325466Y-61750602D01*
X135350000Y-61750602D01*
X135350000Y-61750000D01*
X135850000Y-61750000D01*
X135850000Y-63250000D01*
X135350000Y-63250000D01*
X135350000Y-63249398D01*
X135350000Y-63249398D01*
G37*
D13*
G04 #@! TO.P,JP2,1*
G04 #@! TO.N,/Row_5*
X136650000Y-62500000D03*
D14*
G04 #@! TD*
G04 #@! TO.N,/Row_5*
G04 #@! TO.C,JP2*
G36*
X136150000Y-61750000D02*
X136650000Y-61750000D01*
X136650000Y-61750602D01*
X136674534Y-61750602D01*
X136723365Y-61755412D01*
X136771490Y-61764984D01*
X136818445Y-61779228D01*
X136863778Y-61798005D01*
X136907051Y-61821136D01*
X136947850Y-61848396D01*
X136985779Y-61879524D01*
X137020476Y-61914221D01*
X137051604Y-61952150D01*
X137078864Y-61992949D01*
X137101995Y-62036222D01*
X137120772Y-62081555D01*
X137135016Y-62128510D01*
X137144588Y-62176635D01*
X137149398Y-62225466D01*
X137149398Y-62250000D01*
X137150000Y-62250000D01*
X137150000Y-62750000D01*
X137149398Y-62750000D01*
X137149398Y-62774534D01*
X137144588Y-62823365D01*
X137135016Y-62871490D01*
X137120772Y-62918445D01*
X137101995Y-62963778D01*
X137078864Y-63007051D01*
X137051604Y-63047850D01*
X137020476Y-63085779D01*
X136985779Y-63120476D01*
X136947850Y-63151604D01*
X136907051Y-63178864D01*
X136863778Y-63201995D01*
X136818445Y-63220772D01*
X136771490Y-63235016D01*
X136723365Y-63244588D01*
X136674534Y-63249398D01*
X136650000Y-63249398D01*
X136650000Y-63250000D01*
X136150000Y-63250000D01*
X136150000Y-61750000D01*
X136150000Y-61750000D01*
G37*
D13*
G04 #@! TO.P,JP3,1*
G04 #@! TO.N,/Row_6*
X136650000Y-66500000D03*
D14*
G04 #@! TD*
G04 #@! TO.N,/Row_6*
G04 #@! TO.C,JP3*
G36*
X136150000Y-65750000D02*
X136650000Y-65750000D01*
X136650000Y-65750602D01*
X136674534Y-65750602D01*
X136723365Y-65755412D01*
X136771490Y-65764984D01*
X136818445Y-65779228D01*
X136863778Y-65798005D01*
X136907051Y-65821136D01*
X136947850Y-65848396D01*
X136985779Y-65879524D01*
X137020476Y-65914221D01*
X137051604Y-65952150D01*
X137078864Y-65992949D01*
X137101995Y-66036222D01*
X137120772Y-66081555D01*
X137135016Y-66128510D01*
X137144588Y-66176635D01*
X137149398Y-66225466D01*
X137149398Y-66250000D01*
X137150000Y-66250000D01*
X137150000Y-66750000D01*
X137149398Y-66750000D01*
X137149398Y-66774534D01*
X137144588Y-66823365D01*
X137135016Y-66871490D01*
X137120772Y-66918445D01*
X137101995Y-66963778D01*
X137078864Y-67007051D01*
X137051604Y-67047850D01*
X137020476Y-67085779D01*
X136985779Y-67120476D01*
X136947850Y-67151604D01*
X136907051Y-67178864D01*
X136863778Y-67201995D01*
X136818445Y-67220772D01*
X136771490Y-67235016D01*
X136723365Y-67244588D01*
X136674534Y-67249398D01*
X136650000Y-67249398D01*
X136650000Y-67250000D01*
X136150000Y-67250000D01*
X136150000Y-65750000D01*
X136150000Y-65750000D01*
G37*
D13*
G04 #@! TO.P,JP3,2*
G04 #@! TO.N,/Row_3*
X135350000Y-66500000D03*
D14*
G04 #@! TD*
G04 #@! TO.N,/Row_3*
G04 #@! TO.C,JP3*
G36*
X135350000Y-67249398D02*
X135325466Y-67249398D01*
X135276635Y-67244588D01*
X135228510Y-67235016D01*
X135181555Y-67220772D01*
X135136222Y-67201995D01*
X135092949Y-67178864D01*
X135052150Y-67151604D01*
X135014221Y-67120476D01*
X134979524Y-67085779D01*
X134948396Y-67047850D01*
X134921136Y-67007051D01*
X134898005Y-66963778D01*
X134879228Y-66918445D01*
X134864984Y-66871490D01*
X134855412Y-66823365D01*
X134850602Y-66774534D01*
X134850602Y-66750000D01*
X134850000Y-66750000D01*
X134850000Y-66250000D01*
X134850602Y-66250000D01*
X134850602Y-66225466D01*
X134855412Y-66176635D01*
X134864984Y-66128510D01*
X134879228Y-66081555D01*
X134898005Y-66036222D01*
X134921136Y-65992949D01*
X134948396Y-65952150D01*
X134979524Y-65914221D01*
X135014221Y-65879524D01*
X135052150Y-65848396D01*
X135092949Y-65821136D01*
X135136222Y-65798005D01*
X135181555Y-65779228D01*
X135228510Y-65764984D01*
X135276635Y-65755412D01*
X135325466Y-65750602D01*
X135350000Y-65750602D01*
X135350000Y-65750000D01*
X135850000Y-65750000D01*
X135850000Y-67250000D01*
X135350000Y-67250000D01*
X135350000Y-67249398D01*
X135350000Y-67249398D01*
G37*
D10*
G04 #@! TO.P,SW1,2*
G04 #@! TO.N,Net-(D7-Pad2)*
X92650000Y-56040000D03*
G04 #@! TO.P,SW1,1*
G04 #@! TO.N,/Row_3*
X99000000Y-53500000D03*
G04 #@! TD*
G04 #@! TO.P,SW2,1*
G04 #@! TO.N,Net-(D7-Pad2)*
X93920000Y-53500000D03*
G04 #@! TO.P,SW2,2*
G04 #@! TO.N,/Row_3*
X100270000Y-56040000D03*
G04 #@! TD*
G04 #@! TO.P,SW3,1*
G04 #@! TO.N,/Row_3*
X80000000Y-63000000D03*
G04 #@! TO.P,SW3,2*
G04 #@! TO.N,Net-(D2-Pad2)*
X73650000Y-65540000D03*
G04 #@! TD*
G04 #@! TO.P,SW4,2*
G04 #@! TO.N,Net-(D13-Pad2)*
X111650000Y-65540000D03*
G04 #@! TO.P,SW4,1*
G04 #@! TO.N,/Row_3*
X118000000Y-63000000D03*
G04 #@! TD*
G04 #@! TO.P,SW5,2*
G04 #@! TO.N,/Row_3*
X81270000Y-65540000D03*
G04 #@! TO.P,SW5,1*
G04 #@! TO.N,Net-(D2-Pad2)*
X74920000Y-63000000D03*
G04 #@! TD*
G04 #@! TO.P,SW6,1*
G04 #@! TO.N,Net-(D13-Pad2)*
X112920000Y-63000000D03*
G04 #@! TO.P,SW6,2*
G04 #@! TO.N,/Row_3*
X119270000Y-65540000D03*
G04 #@! TD*
G04 #@! TO.P,SW7,1*
G04 #@! TO.N,/Row_2*
X99000000Y-72500000D03*
G04 #@! TO.P,SW7,2*
G04 #@! TO.N,Net-(D9-Pad2)*
X92650000Y-75040000D03*
G04 #@! TD*
G04 #@! TO.P,SW8,2*
G04 #@! TO.N,/Row_2*
X100270000Y-75040000D03*
G04 #@! TO.P,SW8,1*
G04 #@! TO.N,Net-(D9-Pad2)*
X93920000Y-72500000D03*
G04 #@! TD*
G04 #@! TO.P,SW9,2*
G04 #@! TO.N,Net-(D20-Pad2)*
X54650000Y-84540000D03*
G04 #@! TO.P,SW9,1*
G04 #@! TO.N,/Row_3*
X61000000Y-82000000D03*
G04 #@! TD*
G04 #@! TO.P,SW10,2*
G04 #@! TO.N,Net-(D4-Pad2)*
X73650000Y-84540000D03*
G04 #@! TO.P,SW10,1*
G04 #@! TO.N,/Row_2*
X80000000Y-82000000D03*
G04 #@! TD*
G04 #@! TO.P,SW11,2*
G04 #@! TO.N,Net-(D15-Pad2)*
X111650000Y-84540000D03*
G04 #@! TO.P,SW11,1*
G04 #@! TO.N,/Row_2*
X118000000Y-82000000D03*
G04 #@! TD*
G04 #@! TO.P,SW12,2*
G04 #@! TO.N,/Row_3*
X62270000Y-84540000D03*
G04 #@! TO.P,SW12,1*
G04 #@! TO.N,Net-(D20-Pad2)*
X55920000Y-82000000D03*
G04 #@! TD*
G04 #@! TO.P,SW13,1*
G04 #@! TO.N,Net-(D4-Pad2)*
X74920000Y-82000000D03*
G04 #@! TO.P,SW13,2*
G04 #@! TO.N,/Row_2*
X81270000Y-84540000D03*
G04 #@! TD*
G04 #@! TO.P,SW14,2*
G04 #@! TO.N,/Row_2*
X119270000Y-84540000D03*
G04 #@! TO.P,SW14,1*
G04 #@! TO.N,Net-(D15-Pad2)*
X112920000Y-82000000D03*
G04 #@! TD*
G04 #@! TO.P,SW15,1*
G04 #@! TO.N,/Row_1*
X99000000Y-91500000D03*
G04 #@! TO.P,SW15,2*
G04 #@! TO.N,Net-(D11-Pad2)*
X92650000Y-94040000D03*
G04 #@! TD*
G04 #@! TO.P,SW16,1*
G04 #@! TO.N,Net-(D11-Pad2)*
X93920000Y-91500000D03*
G04 #@! TO.P,SW16,2*
G04 #@! TO.N,/Row_1*
X100270000Y-94040000D03*
G04 #@! TD*
G04 #@! TO.P,SW17,1*
G04 #@! TO.N,/Row_2*
X61000000Y-101000000D03*
G04 #@! TO.P,SW17,2*
G04 #@! TO.N,Net-(D22-Pad2)*
X54650000Y-103540000D03*
G04 #@! TD*
G04 #@! TO.P,SW18,1*
G04 #@! TO.N,/Row_1*
X80000000Y-101000000D03*
G04 #@! TO.P,SW18,2*
G04 #@! TO.N,Net-(D6-Pad2)*
X73650000Y-103540000D03*
G04 #@! TD*
G04 #@! TO.P,SW19,1*
G04 #@! TO.N,Net-(D22-Pad2)*
X55920000Y-101000000D03*
G04 #@! TO.P,SW19,2*
G04 #@! TO.N,/Row_2*
X62270000Y-103540000D03*
G04 #@! TD*
G04 #@! TO.P,SW20,2*
G04 #@! TO.N,/Row_1*
X81270000Y-103540000D03*
G04 #@! TO.P,SW20,1*
G04 #@! TO.N,Net-(D6-Pad2)*
X74920000Y-101000000D03*
G04 #@! TD*
G04 #@! TO.P,SW21,2*
G04 #@! TO.N,Net-(D17-Pad2)*
X111650000Y-103540000D03*
G04 #@! TO.P,SW21,1*
G04 #@! TO.N,/Row_1*
X118000000Y-101000000D03*
G04 #@! TD*
G04 #@! TO.P,SW22,1*
G04 #@! TO.N,/Row_3*
X137000000Y-101000000D03*
G04 #@! TO.P,SW22,2*
G04 #@! TO.N,Net-(D25-Pad2)*
X130650000Y-103540000D03*
G04 #@! TD*
G04 #@! TO.P,SW23,2*
G04 #@! TO.N,/Row_1*
X119270000Y-103540000D03*
G04 #@! TO.P,SW23,1*
G04 #@! TO.N,Net-(D17-Pad2)*
X112920000Y-101000000D03*
G04 #@! TD*
G04 #@! TO.P,SW25,1*
G04 #@! TO.N,/Row_2*
X156000000Y-110500000D03*
G04 #@! TO.P,SW25,2*
G04 #@! TO.N,Net-(D29-Pad2)*
X149650000Y-113040000D03*
G04 #@! TD*
G04 #@! TO.P,SW26,2*
G04 #@! TO.N,/Row_2*
X157270000Y-113040000D03*
G04 #@! TO.P,SW26,1*
G04 #@! TO.N,Net-(D29-Pad2)*
X150920000Y-110500000D03*
G04 #@! TD*
G04 #@! TO.P,SW27,1*
G04 #@! TO.N,/Row_1*
X70500000Y-120000000D03*
G04 #@! TO.P,SW27,2*
G04 #@! TO.N,Net-(D24-Pad2)*
X64150000Y-122540000D03*
G04 #@! TD*
G04 #@! TO.P,SW28,2*
G04 #@! TO.N,Net-(D24-Pad2)*
X102150000Y-122540000D03*
G04 #@! TO.P,SW28,1*
G04 #@! TO.N,/Row_1*
X108500000Y-120000000D03*
G04 #@! TD*
G04 #@! TO.P,SW29,2*
G04 #@! TO.N,Net-(D27-Pad2)*
X130650000Y-122540000D03*
G04 #@! TO.P,SW29,1*
G04 #@! TO.N,/Row_1*
X137000000Y-120000000D03*
G04 #@! TD*
G04 #@! TO.P,SW30,1*
G04 #@! TO.N,Net-(D24-Pad2)*
X65420000Y-120000000D03*
G04 #@! TO.P,SW30,2*
G04 #@! TO.N,/Row_1*
X71770000Y-122540000D03*
G04 #@! TD*
G04 #@! TO.P,SW31,2*
G04 #@! TO.N,/Row_1*
X109770000Y-122540000D03*
G04 #@! TO.P,SW31,1*
G04 #@! TO.N,Net-(D24-Pad2)*
X103420000Y-120000000D03*
G04 #@! TD*
G04 #@! TO.P,SW32,1*
G04 #@! TO.N,Net-(D27-Pad2)*
X131920000Y-120000000D03*
G04 #@! TO.P,SW32,2*
G04 #@! TO.N,/Row_1*
X138270000Y-122540000D03*
G04 #@! TD*
D15*
G04 #@! TO.P,U1,1*
G04 #@! TO.N,Net-(U1-Pad1)*
X128880000Y-48030000D03*
D16*
G04 #@! TO.P,U1,2*
G04 #@! TO.N,Net-(U1-Pad2)*
X128880000Y-50570000D03*
G04 #@! TO.P,U1,3*
G04 #@! TO.N,GND*
X128880000Y-53110000D03*
G04 #@! TO.P,U1,4*
X128880000Y-55650000D03*
G04 #@! TO.P,U1,5*
G04 #@! TO.N,/Row_1*
X128880000Y-58190000D03*
G04 #@! TO.P,U1,6*
G04 #@! TO.N,/Row_2*
X128880000Y-60730000D03*
G04 #@! TO.P,U1,7*
G04 #@! TO.N,/Row_3*
X128880000Y-63270000D03*
G04 #@! TO.P,U1,8*
G04 #@! TO.N,/Column_2*
X128880000Y-65810000D03*
G04 #@! TO.P,U1,9*
G04 #@! TO.N,/Column_3*
X128880000Y-68350000D03*
G04 #@! TO.P,U1,10*
G04 #@! TO.N,/Column_4*
X128880000Y-70890000D03*
G04 #@! TO.P,U1,11*
G04 #@! TO.N,/Column_1*
X128880000Y-73430000D03*
G04 #@! TO.P,U1,12*
G04 #@! TO.N,/Column_5*
X128880000Y-75970000D03*
G04 #@! TO.P,U1,13*
G04 #@! TO.N,Net-(U1-Pad13)*
X144120000Y-75970000D03*
G04 #@! TO.P,U1,14*
G04 #@! TO.N,/Row_6*
X144120000Y-73430000D03*
G04 #@! TO.P,U1,15*
G04 #@! TO.N,/Row_5*
X144120000Y-70890000D03*
G04 #@! TO.P,U1,16*
G04 #@! TO.N,/Row_4*
X144120000Y-68350000D03*
G04 #@! TO.P,U1,17*
G04 #@! TO.N,Net-(U1-Pad17)*
X144120000Y-65810000D03*
G04 #@! TO.P,U1,18*
G04 #@! TO.N,Net-(U1-Pad18)*
X144120000Y-63270000D03*
G04 #@! TO.P,U1,19*
G04 #@! TO.N,Net-(U1-Pad19)*
X144120000Y-60730000D03*
G04 #@! TO.P,U1,20*
G04 #@! TO.N,Net-(U1-Pad20)*
X144120000Y-58190000D03*
G04 #@! TO.P,U1,21*
G04 #@! TO.N,+5V*
X144120000Y-55650000D03*
G04 #@! TO.P,U1,22*
G04 #@! TO.N,Net-(U1-Pad22)*
X144120000Y-53110000D03*
G04 #@! TO.P,U1,23*
G04 #@! TO.N,GND*
X144120000Y-50570000D03*
G04 #@! TO.P,U1,24*
G04 #@! TO.N,Net-(U1-Pad24)*
X144120000Y-48030000D03*
G04 #@! TD*
D17*
G04 #@! TO.N,/Column_2*
X128880000Y-65810000D02*
X132080000Y-69010000D01*
X133780000Y-69010000D02*
X144498601Y-79728601D01*
X132080000Y-69010000D02*
X133780000Y-69010000D01*
X144780000Y-80010000D02*
X144498601Y-79728601D01*
D18*
X160188601Y-82431399D02*
X160188601Y-80178601D01*
X159000000Y-83620000D02*
X160188601Y-82431399D01*
X160188601Y-80178601D02*
X159738601Y-79728601D01*
X159738601Y-79728601D02*
X153951399Y-79728601D01*
D17*
X153951399Y-79728601D02*
X153670000Y-80010000D01*
X153670000Y-80010000D02*
X144780000Y-80010000D01*
D18*
G04 #@! TO.N,/Column_3*
X127085001Y-74844999D02*
X127000000Y-74930000D01*
X129454999Y-74844999D02*
X127085001Y-74844999D01*
D17*
X156460000Y-83500000D02*
X138110000Y-83500000D01*
X127000000Y-74930000D02*
X125730000Y-73660000D01*
X125730000Y-73660000D02*
X125730000Y-68580000D01*
X125960000Y-68350000D02*
X128880000Y-68350000D01*
X125730000Y-68580000D02*
X125960000Y-68350000D01*
D18*
X129454999Y-74844999D02*
X130810000Y-76200000D01*
D17*
X130810000Y-76200000D02*
X138110000Y-83500000D01*
D19*
G04 #@! TO.N,Net-(D7-Pad2)*
X94000000Y-54690000D02*
X92650000Y-56040000D01*
X94000000Y-53500000D02*
X94000000Y-54690000D01*
G04 #@! TO.N,Net-(D11-Pad2)*
X94000000Y-92690000D02*
X92650000Y-94040000D01*
X94000000Y-91500000D02*
X94000000Y-92690000D01*
G04 #@! TO.N,Net-(D13-Pad2)*
X113000000Y-64190000D02*
X111650000Y-65540000D01*
X113000000Y-63000000D02*
X113000000Y-64190000D01*
D17*
G04 #@! TO.N,/Column_4*
X140301399Y-82311399D02*
X128880000Y-70890000D01*
D18*
X159000000Y-81080000D02*
X157768601Y-82311399D01*
X157768601Y-82311399D02*
X155178601Y-82311399D01*
D17*
X155178601Y-82311399D02*
X140301399Y-82311399D01*
D19*
G04 #@! TO.N,Net-(D15-Pad2)*
X113000000Y-83190000D02*
X111650000Y-84540000D01*
X113000000Y-82000000D02*
X113000000Y-83190000D01*
G04 #@! TO.N,Net-(D17-Pad2)*
X113000000Y-102190000D02*
X111650000Y-103540000D01*
X113000000Y-101000000D02*
X113000000Y-102190000D01*
D18*
G04 #@! TO.N,/Column_1*
X155238686Y-80960000D02*
X154918686Y-81280000D01*
X156460000Y-80960000D02*
X155238686Y-80960000D01*
D17*
X154918686Y-81280000D02*
X142240000Y-81280000D01*
X128080001Y-72630001D02*
X127240001Y-72630001D01*
X128880000Y-73430000D02*
X128080001Y-72630001D01*
X127240001Y-72630001D02*
X127000000Y-72390000D01*
X127000000Y-72390000D02*
X127000000Y-69850000D01*
D18*
X130724999Y-69764999D02*
X130810000Y-69850000D01*
X127085001Y-69764999D02*
X130724999Y-69764999D01*
X127000000Y-69850000D02*
X127085001Y-69764999D01*
D17*
X142240000Y-81280000D02*
X130810000Y-69850000D01*
D19*
G04 #@! TO.N,Net-(D25-Pad2)*
X132000000Y-102190000D02*
X130650000Y-103540000D01*
X132000000Y-101000000D02*
X132000000Y-102190000D01*
D17*
G04 #@! TO.N,/Column_5*
X128880000Y-77101370D02*
X138138630Y-86360000D01*
X128880000Y-75970000D02*
X128880000Y-77101370D01*
X138138630Y-86360000D02*
X160020000Y-86360000D01*
X160020000Y-86360000D02*
X161290000Y-85090000D01*
X160221314Y-78420000D02*
X159000000Y-78420000D01*
X161290000Y-79488686D02*
X160221314Y-78420000D01*
X161290000Y-85090000D02*
X161290000Y-79488686D01*
D19*
G04 #@! TO.N,Net-(D27-Pad2)*
X132000000Y-121190000D02*
X130650000Y-122540000D01*
X132000000Y-120000000D02*
X132000000Y-121190000D01*
G04 #@! TO.N,Net-(D29-Pad2)*
X151000000Y-111690000D02*
X149650000Y-113040000D01*
X151000000Y-110500000D02*
X151000000Y-111690000D01*
D17*
G04 #@! TO.N,/Row_4*
X139280000Y-58000000D02*
X136650000Y-58000000D01*
X140970000Y-59690000D02*
X139280000Y-58000000D01*
X140970000Y-66850000D02*
X140970000Y-59690000D01*
X144120000Y-68350000D02*
X142470000Y-68350000D01*
X142470000Y-68350000D02*
X140970000Y-66850000D01*
X153662202Y-68350000D02*
X158972202Y-73660000D01*
X144120000Y-68350000D02*
X153662202Y-68350000D01*
X158972202Y-73660000D02*
X160020000Y-73660000D01*
X160020000Y-73660000D02*
X161290000Y-74930000D01*
D18*
X157323599Y-76863599D02*
X156460000Y-76000000D01*
X157691399Y-77231399D02*
X157323599Y-76863599D01*
X160080803Y-77231399D02*
X157691399Y-77231399D01*
X161290000Y-76022202D02*
X160080803Y-77231399D01*
D17*
X161290000Y-74930000D02*
X161290000Y-76022202D01*
G04 #@! TO.N,/Row_5*
X144120000Y-70890000D02*
X142470000Y-70890000D01*
X142470000Y-70890000D02*
X139700000Y-68120000D01*
X139700000Y-68120000D02*
X139700000Y-64770000D01*
D18*
X137430000Y-62500000D02*
X136650000Y-62500000D01*
D17*
X139700000Y-64770000D02*
X137430000Y-62500000D01*
X154710000Y-70890000D02*
X144120000Y-70890000D01*
D18*
X159000000Y-75880000D02*
X159000000Y-75180000D01*
D17*
X159000000Y-75180000D02*
X154710000Y-70890000D01*
G04 #@! TO.N,/Row_6*
X144120000Y-73430000D02*
X142010000Y-73430000D01*
X136650000Y-68070000D02*
X136650000Y-66500000D01*
X142010000Y-73430000D02*
X136650000Y-68070000D01*
X155238686Y-78420000D02*
X156460000Y-78420000D01*
X154620000Y-78420000D02*
X155238686Y-78420000D01*
X149630000Y-73430000D02*
X154620000Y-78420000D01*
X144120000Y-73430000D02*
X149630000Y-73430000D01*
D19*
G04 #@! TO.N,/Row_1*
X137000000Y-121190000D02*
X138350000Y-122540000D01*
X137000000Y-120000000D02*
X137000000Y-121190000D01*
X108500000Y-121190000D02*
X109850000Y-122540000D01*
X108500000Y-120000000D02*
X108500000Y-121190000D01*
X118000000Y-102190000D02*
X119350000Y-103540000D01*
X118000000Y-101000000D02*
X118000000Y-102190000D01*
X99000000Y-92690000D02*
X100350000Y-94040000D01*
X99000000Y-91500000D02*
X99000000Y-92690000D01*
X70500000Y-121190000D02*
X71850000Y-122540000D01*
X70500000Y-120000000D02*
X70500000Y-121190000D01*
X80000000Y-102190000D02*
X81350000Y-103540000D01*
X80000000Y-101000000D02*
X80000000Y-102190000D01*
D18*
X119380000Y-115570000D02*
X120650000Y-115570000D01*
D17*
X108500000Y-118444366D02*
X109220000Y-117724366D01*
X108500000Y-120000000D02*
X108500000Y-118444366D01*
X109220000Y-117724366D02*
X109220000Y-115570000D01*
X109220000Y-115570000D02*
X119380000Y-115570000D01*
X119350000Y-103540000D02*
X121320000Y-103540000D01*
X121320000Y-103540000D02*
X123190000Y-105410000D01*
X123190000Y-105410000D02*
X123190000Y-115570000D01*
X123190000Y-115570000D02*
X119380000Y-115570000D01*
X70500000Y-120000000D02*
X71599999Y-118900001D01*
X71599999Y-118900001D02*
X74930000Y-115570000D01*
X74930000Y-115570000D02*
X78740000Y-115570000D01*
X81350000Y-103540000D02*
X84490000Y-103540000D01*
X84490000Y-103540000D02*
X86360000Y-105410000D01*
X86360000Y-105410000D02*
X86360000Y-115570000D01*
X100350000Y-94040000D02*
X104080000Y-94040000D01*
X104080000Y-94040000D02*
X105410000Y-95370000D01*
X105410000Y-95370000D02*
X105410000Y-115570000D01*
X109220000Y-115570000D02*
X105410000Y-115570000D01*
X105410000Y-115570000D02*
X76200000Y-115570000D01*
D18*
X135160000Y-58190000D02*
X135350000Y-58000000D01*
D17*
X128880000Y-58190000D02*
X135160000Y-58190000D01*
X128880000Y-58190000D02*
X111530000Y-58190000D01*
X111530000Y-58190000D02*
X107950000Y-54610000D01*
X107950000Y-54610000D02*
X107950000Y-52070000D01*
X107950000Y-52070000D02*
X104140000Y-48260000D01*
X104140000Y-48260000D02*
X90170000Y-48260000D01*
X90170000Y-48260000D02*
X88900000Y-48260000D01*
X88900000Y-48260000D02*
X86360000Y-50800000D01*
X86360000Y-50800000D02*
X86360000Y-54610000D01*
X86360000Y-54610000D02*
X83820000Y-57150000D01*
X83820000Y-57150000D02*
X71120000Y-57150000D01*
X71120000Y-57150000D02*
X67310000Y-60960000D01*
X66040000Y-69850000D02*
X57150000Y-78740000D01*
X57150000Y-78740000D02*
X53340000Y-78740000D01*
X53340000Y-78740000D02*
X50800000Y-81280000D01*
X50800000Y-81280000D02*
X50800000Y-113030000D01*
X50800000Y-113030000D02*
X53340000Y-115570000D01*
X53340000Y-115570000D02*
X76200000Y-115570000D01*
X66040000Y-69850000D02*
X67310000Y-68580000D01*
X67310000Y-68580000D02*
X67310000Y-60960000D01*
X123190000Y-115570000D02*
X135570000Y-115570000D01*
X135570000Y-115570000D02*
X137000000Y-117000000D01*
X137000000Y-117000000D02*
X137000000Y-120000000D01*
D19*
G04 #@! TO.N,/Row_2*
X156000000Y-111690000D02*
X157350000Y-113040000D01*
X156000000Y-110500000D02*
X156000000Y-111690000D01*
X118000000Y-83190000D02*
X119350000Y-84540000D01*
X118000000Y-82000000D02*
X118000000Y-83190000D01*
X99000000Y-73690000D02*
X100350000Y-75040000D01*
X99000000Y-72500000D02*
X99000000Y-73690000D01*
X80000000Y-83190000D02*
X81350000Y-84540000D01*
X80000000Y-82000000D02*
X80000000Y-83190000D01*
X61000000Y-102190000D02*
X62350000Y-103540000D01*
X61000000Y-101000000D02*
X61000000Y-102190000D01*
D17*
X83270000Y-84540000D02*
X81350000Y-84540000D01*
X86360000Y-87630000D02*
X83270000Y-84540000D01*
X86360000Y-95250000D02*
X86360000Y-87630000D01*
X85090000Y-96520000D02*
X86360000Y-95250000D01*
X61000000Y-101000000D02*
X65480000Y-96520000D01*
X65480000Y-96520000D02*
X85090000Y-96520000D01*
X100350000Y-75040000D02*
X102760000Y-75040000D01*
X102760000Y-75040000D02*
X105410000Y-77690000D01*
X118000000Y-82000000D02*
X118000000Y-80120000D01*
X118000000Y-80120000D02*
X116620000Y-78740000D01*
X116620000Y-78740000D02*
X105410000Y-78740000D01*
X105410000Y-77690000D02*
X105410000Y-78740000D01*
X119350000Y-84540000D02*
X122640000Y-84540000D01*
X122640000Y-84540000D02*
X125730000Y-87630000D01*
X125730000Y-87630000D02*
X125730000Y-113030000D01*
X125730000Y-113030000D02*
X127000000Y-114300000D01*
X127000000Y-114300000D02*
X143510000Y-114300000D01*
X143510000Y-114300000D02*
X144780000Y-113030000D01*
X144780000Y-113030000D02*
X144780000Y-109220000D01*
X144780000Y-109220000D02*
X146050000Y-107950000D01*
X146050000Y-107950000D02*
X153670000Y-107950000D01*
X154900001Y-109180001D02*
X153670000Y-107950000D01*
X154900001Y-109400001D02*
X154900001Y-109180001D01*
X156000000Y-110500000D02*
X154900001Y-109400001D01*
X133580000Y-60730000D02*
X135350000Y-62500000D01*
X128880000Y-60730000D02*
X133580000Y-60730000D01*
X87630000Y-52070000D02*
X90170000Y-49530000D01*
X58420000Y-80010000D02*
X68580000Y-69850000D01*
X68580000Y-69850000D02*
X68580000Y-60960000D01*
X58420000Y-81776740D02*
X58420000Y-80010000D01*
X90170000Y-49530000D02*
X102870000Y-49530000D01*
X102870000Y-49530000D02*
X106680000Y-53340000D01*
X65480000Y-96520000D02*
X60865001Y-91905001D01*
X87630000Y-55880000D02*
X87630000Y-52070000D01*
X68580000Y-60960000D02*
X71120000Y-58420000D01*
X71120000Y-58420000D02*
X85090000Y-58420000D01*
X85090000Y-58420000D02*
X87630000Y-55880000D01*
X128880000Y-60730000D02*
X124230000Y-60730000D01*
X124230000Y-60730000D02*
X123190000Y-59690000D01*
X123190000Y-59690000D02*
X110490000Y-59690000D01*
X110490000Y-59690000D02*
X106680000Y-55880000D01*
X106680000Y-55880000D02*
X106680000Y-53340000D01*
X105410000Y-78740000D02*
X105410000Y-85090000D01*
X105410000Y-85090000D02*
X102870000Y-87630000D01*
X102870000Y-87630000D02*
X86360000Y-87630000D01*
X58420000Y-81776740D02*
X58420000Y-83820000D01*
X56134999Y-86105001D02*
X58420000Y-83820000D01*
X56134999Y-88196001D02*
X56134999Y-86105001D01*
X59843999Y-91905001D02*
X56134999Y-88196001D01*
X60865001Y-91905001D02*
X59843999Y-91905001D01*
D19*
G04 #@! TO.N,/Row_3*
X137000000Y-102190000D02*
X138350000Y-103540000D01*
X137000000Y-101000000D02*
X137000000Y-102190000D01*
X118000000Y-64190000D02*
X119350000Y-65540000D01*
X118000000Y-63000000D02*
X118000000Y-64190000D01*
X99000000Y-54690000D02*
X100350000Y-56040000D01*
X99000000Y-53500000D02*
X99000000Y-54690000D01*
X80000000Y-64190000D02*
X81350000Y-65540000D01*
X80000000Y-63000000D02*
X80000000Y-64190000D01*
X61000000Y-83190000D02*
X62350000Y-84540000D01*
X61000000Y-82000000D02*
X61000000Y-83190000D01*
D17*
X65530000Y-77470000D02*
X61000000Y-82000000D01*
X81350000Y-65540000D02*
X84590000Y-65540000D01*
X84590000Y-65540000D02*
X86360000Y-67310000D01*
X86360000Y-67310000D02*
X105410000Y-67310000D01*
X100350000Y-56040000D02*
X104300000Y-56040000D01*
X104300000Y-56040000D02*
X105410000Y-57150000D01*
X105410000Y-57150000D02*
X105410000Y-67310000D01*
X119350000Y-65540000D02*
X122690000Y-65540000D01*
X122690000Y-65540000D02*
X124460000Y-67310000D01*
X124460000Y-67310000D02*
X124460000Y-74930000D01*
X124460000Y-74930000D02*
X123190000Y-76200000D01*
X123190000Y-76200000D02*
X109220000Y-76200000D01*
X109220000Y-76200000D02*
X107950000Y-76200000D01*
X107950000Y-76200000D02*
X106680000Y-74930000D01*
X106680000Y-74930000D02*
X106680000Y-68580000D01*
X106680000Y-68580000D02*
X105410000Y-67310000D01*
X124460000Y-77470000D02*
X123190000Y-76200000D01*
X124460000Y-83820000D02*
X124460000Y-77470000D01*
X137000000Y-99220000D02*
X135570000Y-97790000D01*
X137000000Y-101000000D02*
X137000000Y-99220000D01*
X135570000Y-97790000D02*
X128270000Y-97790000D01*
X128270000Y-97790000D02*
X127000000Y-96520000D01*
X127000000Y-96520000D02*
X127000000Y-86360000D01*
X127000000Y-86360000D02*
X124460000Y-83820000D01*
X133810000Y-66500000D02*
X135350000Y-66500000D01*
X128880000Y-63270000D02*
X130580000Y-63270000D01*
X130580000Y-63270000D02*
X133810000Y-66500000D01*
X128880000Y-63270000D02*
X127230000Y-63270000D01*
X127230000Y-63270000D02*
X124460000Y-66040000D01*
X124460000Y-66040000D02*
X123190000Y-66040000D01*
X86360000Y-67310000D02*
X86360000Y-74930000D01*
X86360000Y-74930000D02*
X83820000Y-77470000D01*
X83820000Y-77470000D02*
X65530000Y-77470000D01*
G04 #@! TO.N,GND*
X131190000Y-50800000D02*
X128880000Y-53110000D01*
X133350000Y-50800000D02*
X131190000Y-50800000D01*
X144120000Y-50570000D02*
X133580000Y-50570000D01*
X133580000Y-50570000D02*
X133350000Y-50800000D01*
X128880000Y-54241370D02*
X128880000Y-55650000D01*
D18*
X128880000Y-53110000D02*
X128880000Y-54241370D01*
D19*
G04 #@! TO.N,Net-(D2-Pad2)*
X75000000Y-64190000D02*
X73650000Y-65540000D01*
X75000000Y-63000000D02*
X75000000Y-64190000D01*
G04 #@! TO.N,Net-(D4-Pad2)*
X75000000Y-83190000D02*
X73650000Y-84540000D01*
X75000000Y-82000000D02*
X75000000Y-83190000D01*
G04 #@! TO.N,Net-(D6-Pad2)*
X75000000Y-102190000D02*
X73650000Y-103540000D01*
X75000000Y-101000000D02*
X75000000Y-102190000D01*
G04 #@! TO.N,Net-(D9-Pad2)*
X94000000Y-73690000D02*
X92650000Y-75040000D01*
X94000000Y-72500000D02*
X94000000Y-73690000D01*
G04 #@! TO.N,Net-(D20-Pad2)*
X56000000Y-83190000D02*
X54650000Y-84540000D01*
X56000000Y-82000000D02*
X56000000Y-83190000D01*
G04 #@! TO.N,Net-(D22-Pad2)*
X56000000Y-102190000D02*
X54650000Y-103540000D01*
X56000000Y-101000000D02*
X56000000Y-102190000D01*
G04 #@! TO.N,Net-(D24-Pad2)*
X103500000Y-121190000D02*
X102150000Y-122540000D01*
X103500000Y-120000000D02*
X103500000Y-121190000D01*
X65500000Y-121190000D02*
X64150000Y-122540000D01*
X65500000Y-120000000D02*
X65500000Y-121190000D01*
G04 #@! TD*
M02*
