M48
;DRILL file {KiCad (5.0.0)} date 08/07/18 19:49:48
;FORMAT={-:-/ absolute / inch / decimal}
FMAT,2
INCH,TZ
T1C0.0669
T2C0.1260
T3C0.1575
%
G90
G05
M72
T1
X2.8496Y-2.6803
X3.2496Y-2.6803
X5.0937Y-4.9244
X5.4937Y-4.9244
X5.8417Y-4.5504
X6.2417Y-4.5504
X2.1016Y-4.1764
X2.5016Y-4.1764
X2.1016Y-3.4283
X2.5016Y-3.4283
X2.8496Y-2.6803
X3.2496Y-2.6803
X5.0937Y-4.1764
X5.4937Y-4.1764
X2.4756Y-4.9244
X2.8756Y-4.9244
X2.1016Y-4.1764
X2.5016Y-4.1764
X4.3457Y-3.4283
X4.7457Y-3.4283
X3.5976Y-3.0543
X3.9976Y-3.0543
X5.0937Y-4.9244
X5.4937Y-4.9244
X4.3457Y-4.1764
X4.7457Y-4.1764
X2.1016Y-3.4283
X2.5016Y-3.4283
X3.5976Y-2.3063
X3.9976Y-2.3063
X3.9717Y-4.9244
X4.3717Y-4.9244
X4.3457Y-4.1764
X4.7457Y-4.1764
X3.5976Y-3.8024
X3.9976Y-3.8024
X4.3457Y-3.4283
X4.7457Y-3.4283
X4.3457Y-2.6803
X4.7457Y-2.6803
X5.8417Y-4.5504
X6.2417Y-4.5504
X2.8496Y-4.1764
X3.2496Y-4.1764
X2.8496Y-3.4283
X3.2496Y-3.4283
X4.3457Y-2.6803
X4.7457Y-2.6803
X3.9717Y-4.9244
X4.3717Y-4.9244
X2.8496Y-4.1764
X3.2496Y-4.1764
X3.5976Y-3.0543
X3.9976Y-3.0543
X3.5976Y-2.3063
X3.9976Y-2.3063
X2.4756Y-4.9244
X2.8756Y-4.9244
X5.0937Y-4.1764
X5.4937Y-4.1764
X3.5976Y-3.8024
X3.9976Y-3.8024
X2.8496Y-3.4283
X3.2496Y-3.4283
T2
X6.3386Y-5.1575
X6.3386Y-2.0079
X2.0079Y-5.1575
X2.0079Y-2.0079
T3
X4.5457Y-2.6803
X4.1717Y-4.9244
X3.0496Y-4.1764
X3.7976Y-3.0543
X3.7976Y-2.3063
X2.6756Y-4.9244
X5.2937Y-4.1764
X3.7976Y-3.8024
X3.0496Y-3.4283
X3.0496Y-2.6803
X5.2937Y-4.9244
X6.0417Y-4.5504
X2.3016Y-4.1764
X2.3016Y-3.4283
X3.0496Y-2.6803
X5.2937Y-4.1764
X2.6756Y-4.9244
X2.3016Y-4.1764
X4.5457Y-3.4283
X3.7976Y-3.0543
X5.2937Y-4.9244
X4.5457Y-4.1764
X2.3016Y-3.4283
X3.7976Y-2.3063
X4.1717Y-4.9244
X4.5457Y-4.1764
X3.7976Y-3.8024
X4.5457Y-3.4283
X4.5457Y-2.6803
X6.0417Y-4.5504
X3.0496Y-4.1764
X3.0496Y-3.4283
T0
M30
